<svg width="80" height="79" viewBox="0 0 80 79" fill="none" xmlns="http://www.w3.org/2000/svg">
<g clip-path="url(#clip0_1_30)">
<path d="M70.6 49.5757L79.175 53.7611C80.275 54.2976 80.275 55.8293 79.175 56.3659L41.335 74.8294C40.9204 75.0312 40.4634 75.1363 40 75.1363C39.5366 75.1363 39.0796 75.0312 38.665 74.8294L0.825004 56.3659C0.577811 56.2444 0.370067 56.0582 0.224916 55.8283C0.0797648 55.5983 0.00290774 55.3336 0.00290774 55.0635C0.00290774 54.7934 0.0797648 54.5287 0.224916 54.2987C0.370067 54.0687 0.577811 53.8826 0.825004 53.7611L9.405 49.5757L35.99 62.5464C38.515 63.7757 41.49 63.7757 44.01 62.5464L70.595 49.5708L70.6 49.5757ZM38.665 0.307395C39.0796 0.105555 39.5366 0.000488281 40 0.000488281C40.4634 0.000488281 40.9204 0.105555 41.335 0.307395L79.175 18.7659C79.422 18.8883 79.6294 19.0749 79.7744 19.3053C79.9193 19.5356 79.996 19.8006 79.996 20.0708C79.996 20.3411 79.9193 20.606 79.7744 20.8364C79.6294 21.0667 79.422 21.2533 79.175 21.3757L41.335 39.8293C40.9204 40.0312 40.4634 40.1363 40 40.1363C39.5366 40.1363 39.0796 40.0312 38.665 39.8293L0.825004 21.3757C0.576501 21.2546 0.367485 21.0684 0.221397 20.8379C0.0753083 20.6074 -0.0020752 20.3418 -0.0020752 20.0708C-0.0020752 19.7998 0.0753083 19.5342 0.221397 19.3037C0.367485 19.0732 0.576501 18.887 0.825004 18.7659L38.665 0.307395Z" fill="url(#paint0_linear_1_30)"/>
<path d="M70.6 32.0781L79.175 36.2635C80.275 36.8001 80.275 38.3318 79.175 38.8684L41.335 57.3269C40.9204 57.5287 40.4634 57.6338 40 57.6338C39.5367 57.6338 39.0796 57.5287 38.665 57.3269L0.825026 38.8684C0.577833 38.7468 0.370089 38.5607 0.224938 38.3307C0.0797867 38.1008 0.00292969 37.836 0.00292969 37.5659C0.00292969 37.2959 0.0797867 37.0311 0.224938 36.8011C0.370089 36.5712 0.577833 36.385 0.825026 36.2635L9.40503 32.0781L35.99 45.0489C38.515 46.2781 41.49 46.2781 44.01 45.0489L70.6 32.0781Z" fill="url(#paint1_linear_1_30)"/>
</g>
<defs>
<linearGradient id="paint0_linear_1_30" x1="39.999" y1="0.000488281" x2="39.999" y2="75.1363" gradientUnits="userSpaceOnUse">
<stop stop-color="#B3B3B3"/>
<stop offset="1" stop-color="#171717"/>
</linearGradient>
<linearGradient id="paint1_linear_1_30" x1="40.0015" y1="32.0781" x2="40.0015" y2="57.6338" gradientUnits="userSpaceOnUse">
<stop stop-color="#B3B3B3"/>
<stop offset="1" stop-color="#171717"/>
</linearGradient>
<clipPath id="clip0_1_30">
<rect width="80" height="78.0488" fill="white"/>
</clipPath>
</defs>
</svg>
