<svg width="46" height="81" viewBox="0 0 46 81" fill="none" xmlns="http://www.w3.org/2000/svg">
<g filter="url(#filter0_d_1_123)">
<path fill-rule="evenodd" clip-rule="evenodd" d="M41.1608 75.4362C40.8955 75.7022 40.5803 75.9133 40.2333 76.0573C39.8862 76.2013 39.5142 76.2754 39.1385 76.2754C38.7628 76.2754 38.3907 76.2013 38.0437 76.0573C37.6967 75.9133 37.3815 75.7022 37.1161 75.4362L2.83918 41.1592C2.57317 40.8939 2.36212 40.5787 2.21812 40.2317C2.07412 39.8847 2 39.5126 2 39.1369C2 38.7612 2.07412 38.3892 2.21812 38.0421C2.36212 37.6951 2.57317 37.3799 2.83918 37.1146L37.1161 2.8376C37.6525 2.30125 38.38 1.99992 39.1385 1.99992C39.897 1.99992 40.6245 2.30125 41.1608 2.8376C41.6972 3.37396 41.9985 4.10142 41.9985 4.85995C41.9985 5.61847 41.6972 6.34593 41.1608 6.88229L8.90049 39.1369L41.1608 71.3915C41.4268 71.6569 41.6379 71.9721 41.7819 72.3191C41.9259 72.6661 42 73.0382 42 73.4139C42 73.7896 41.9259 74.1616 41.7819 74.5086C41.6379 74.8557 41.4268 75.1709 41.1608 75.4362Z" fill="url(#paint0_linear_1_123)"/>
</g>
<defs>
<filter id="filter0_d_1_123" x="0" y="0" width="46" height="80.2754" filterUnits="userSpaceOnUse" color-interpolation-filters="sRGB">
<feFlood flood-opacity="0" result="BackgroundImageFix"/>
<feColorMatrix in="SourceAlpha" type="matrix" values="0 0 0 0 0 0 0 0 0 0 0 0 0 0 0 0 0 0 127 0" result="hardAlpha"/>
<feOffset dx="1" dy="1"/>
<feGaussianBlur stdDeviation="1.5"/>
<feComposite in2="hardAlpha" operator="out"/>
<feColorMatrix type="matrix" values="0 0 0 0 0 0 0 0 0 0 0 0 0 0 0 0 0 0 0.25 0"/>
<feBlend mode="normal" in2="BackgroundImageFix" result="effect1_dropShadow_1_123"/>
<feBlend mode="normal" in="SourceGraphic" in2="effect1_dropShadow_1_123" result="shape"/>
</filter>
<linearGradient id="paint0_linear_1_123" x1="22" y1="76.2754" x2="22" y2="1.99992" gradientUnits="userSpaceOnUse">
<stop stop-color="#B3B3B3"/>
<stop offset="1" stop-color="#171717"/>
</linearGradient>
</defs>
</svg>
