<svg width="46" height="81" viewBox="0 0 46 81" fill="none" xmlns="http://www.w3.org/2000/svg">
<g filter="url(#filter0_d_1_124)">
<path fill-rule="evenodd" clip-rule="evenodd" d="M2.83918 2.83918C3.10451 2.57317 3.41972 2.36212 3.76675 2.21812C4.11377 2.07412 4.4858 2 4.86152 2C5.23724 2 5.60926 2.07412 5.95629 2.21812C6.30332 2.36212 6.61852 2.57317 6.88386 2.83918L41.1608 37.1161C41.4268 37.3815 41.6379 37.6967 41.7819 38.0437C41.9259 38.3907 42 38.7628 42 39.1385C42 39.5142 41.9259 39.8862 41.7819 40.2332C41.6379 40.5803 41.4268 40.8955 41.1608 41.1608L6.88386 75.4378C6.3475 75.9741 5.62004 76.2755 4.86152 76.2755C4.10299 76.2755 3.37554 75.9741 2.83918 75.4378C2.30282 74.9014 2.0015 74.174 2.0015 73.4154C2.0015 72.6569 2.30282 71.9295 2.83918 71.3931L35.0995 39.1385L2.83918 6.88386C2.57317 6.61853 2.36212 6.30332 2.21812 5.95629C2.07412 5.60926 2 5.23724 2 4.86152C2 4.4858 2.07412 4.11378 2.21812 3.76675C2.36212 3.41972 2.57317 3.10452 2.83918 2.83918Z" fill="url(#paint0_linear_1_124)"/>
</g>
<defs>
<filter id="filter0_d_1_124" x="0" y="0" width="46" height="80.2754" filterUnits="userSpaceOnUse" color-interpolation-filters="sRGB">
<feFlood flood-opacity="0" result="BackgroundImageFix"/>
<feColorMatrix in="SourceAlpha" type="matrix" values="0 0 0 0 0 0 0 0 0 0 0 0 0 0 0 0 0 0 127 0" result="hardAlpha"/>
<feOffset dx="1" dy="1"/>
<feGaussianBlur stdDeviation="1.5"/>
<feComposite in2="hardAlpha" operator="out"/>
<feColorMatrix type="matrix" values="0 0 0 0 0 0 0 0 0 0 0 0 0 0 0 0 0 0 0.25 0"/>
<feBlend mode="normal" in2="BackgroundImageFix" result="effect1_dropShadow_1_124"/>
<feBlend mode="normal" in="SourceGraphic" in2="effect1_dropShadow_1_124" result="shape"/>
</filter>
<linearGradient id="paint0_linear_1_124" x1="22" y1="2" x2="22" y2="76.2755" gradientUnits="userSpaceOnUse">
<stop stop-color="#B3B3B3"/>
<stop offset="1" stop-color="#171717"/>
</linearGradient>
</defs>
</svg>
