<svg width="60" height="60" viewBox="0 0 60 60" fill="none" xmlns="http://www.w3.org/2000/svg">
<path d="M11.3333 8.33333C10.4493 8.33333 9.60143 8.68452 8.97631 9.30964C8.35119 9.93476 8 10.7826 8 11.6667V15C8 15.8841 8.35119 16.7319 8.97631 17.357C9.60143 17.9821 10.4493 18.3333 11.3333 18.3333H13V48.3333C13 50.1014 13.7024 51.7971 14.9526 53.0474C16.2029 54.2976 17.8986 55 19.6667 55H39.6667C41.4348 55 43.1305 54.2976 44.3807 53.0474C45.631 51.7971 46.3333 50.1014 46.3333 48.3333V18.3333H48C48.8841 18.3333 49.7319 17.9821 50.357 17.357C50.9821 16.7319 51.3333 15.8841 51.3333 15V11.6667C51.3333 10.7826 50.9821 9.93476 50.357 9.30964C49.7319 8.68452 48.8841 8.33333 48 8.33333H36.3333C36.3333 7.44928 35.9821 6.60143 35.357 5.97631C34.7319 5.35119 33.8841 5 33 5H26.3333C25.4493 5 24.6014 5.35119 23.9763 5.97631C23.3512 6.60143 23 7.44928 23 8.33333H11.3333ZM21.3333 21.6667C21.7754 21.6667 22.1993 21.8423 22.5118 22.1548C22.8244 22.4674 23 22.8913 23 23.3333V46.6667C23 47.1087 22.8244 47.5326 22.5118 47.8452C22.1993 48.1577 21.7754 48.3333 21.3333 48.3333C20.8913 48.3333 20.4674 48.1577 20.1548 47.8452C19.8423 47.5326 19.6667 47.1087 19.6667 46.6667V23.3333C19.6667 22.8913 19.8423 22.4674 20.1548 22.1548C20.4674 21.8423 20.8913 21.6667 21.3333 21.6667ZM29.6667 21.6667C30.1087 21.6667 30.5326 21.8423 30.8452 22.1548C31.1577 22.4674 31.3333 22.8913 31.3333 23.3333V46.6667C31.3333 47.1087 31.1577 47.5326 30.8452 47.8452C30.5326 48.1577 30.1087 48.3333 29.6667 48.3333C29.2246 48.3333 28.8007 48.1577 28.4882 47.8452C28.1756 47.5326 28 47.1087 28 46.6667V23.3333C28 22.8913 28.1756 22.4674 28.4882 22.1548C28.8007 21.8423 29.2246 21.6667 29.6667 21.6667ZM39.6667 23.3333V46.6667C39.6667 47.1087 39.4911 47.5326 39.1785 47.8452C38.866 48.1577 38.442 48.3333 38 48.3333C37.558 48.3333 37.134 48.1577 36.8215 47.8452C36.5089 47.5326 36.3333 47.1087 36.3333 46.6667V23.3333C36.3333 22.8913 36.5089 22.4674 36.8215 22.1548C37.134 21.8423 37.558 21.6667 38 21.6667C38.442 21.6667 38.866 21.8423 39.1785 22.1548C39.4911 22.4674 39.6667 22.8913 39.6667 23.3333Z" fill="url(#paint0_linear_1_165)"/>
<defs>
<linearGradient id="paint0_linear_1_165" x1="40.4398" y1="-8.24999" x2="5.93523" y2="-1.35523" gradientUnits="userSpaceOnUse">
<stop stop-color="#FB8C36"/>
<stop offset="1" stop-color="#FFDB5B"/>
</linearGradient>
</defs>
</svg>
